:SAMPLES-PER-SECOND 30
:FULLY-SPECIFIED
:DEGREES
231
root  -0.97905 40.1172 -4.76897 23.4259 86.6329 26.2969
RightUpLeg  -17.4624 -10.68 -6.33915
RightLeg  32.8199 -6.33462 -4.61307
RightFoot  -4.56609 -0.376456 5.84157
RightToes  0.00048216 0.542163 -0.142577
Spine  13.2516 -0.421584 1.81396
Spine1  9.06744 0.147193 -2.08956
HEad  8.6323 3.49358 -5.2658
LeftShoulder1  6.32963 -9.46904 -42.3623
LeftArm  -15.2446 22.5908 -27.5754
LeftForeArm  16.5487 -20.2474 -3.807
LeftHand  -0.25398 0.0180481 5.50724
RightShoulder  5.87384 10.1308 37.0693
RightArm  6.20097 -34.7144 38.8311
RightForeArm  0.414466 19.167 5.78652
RightHand  -0.504526 -1.30635 -14.1579
LeftUpLeg  5.50874 6.73728 -0.701747
LeftLeg  11.4781 12.9235 -1.41513
LeftFoot  -14.2494 0.0405622 -1.77288
LeftToes  1.06246e-005 4.65856e-005 -8.18501e-006
232
root  -1.51604 40.1421 -4.80822 26.499 86.0725 29.6077
RightUpLeg  -14.9945 -8.65164 -7.96529
RightLeg  37.309 -7.2644 -6.14975
RightFoot  -6.46219 -0.261402 5.07146
RightToes  0.00048216 0.542163 -0.142577
Spine  12.0516 -0.468173 0.505934
Spine1  9.01018 -0.252565 -1.3465
HEad  7.8597 3.09975 -4.17398
LeftShoulder1  6.50569 -9.67013 -42.9122
LeftArm  -13.9365 23.8509 -27.9313
LeftForeArm  16.7664 -14.6071 -3.95257
LeftHand  -0.25398 0.0180481 5.50724
RightShoulder  5.67771 9.65661 37.1295
RightArm  -0.431427 -31.8855 38.2023
RightForeArm  2.79118 16.624 6.22599
RightHand  -0.51882 -1.28257 -14.4711
LeftUpLeg  5.03191 6.79583 -1.18103
LeftLeg  11.2956 13.2362 -1.61798
LeftFoot  -13.8881 0.0446896 -1.73879
LeftToes  1.06246e-005 4.65856e-005 -8.18501e-006
233
root  -1.96581 40.1522 -4.84968 27.5653 85.1087 30.6928
RightUpLeg  -12.0346 -7.22775 -9.29909
RightLeg  39.331 -7.09507 -6.45727
RightFoot  -7.73224 -0.170292 3.76327
RightToes  0.00048216 0.542163 -0.142577
Spine  10.2759 -0.435037 -0.137689
Spine1  9.11512 -0.258195 -1.35446
HEad  7.95213 2.88141 -3.48118
LeftShoulder1  6.65779 -9.86078 -43.3142
LeftArm  -14.3134 25.1697 -28.7207
LeftForeArm  18.7906 -10.0601 -4.04488
LeftHand  -0.25398 0.0180481 5.50724
RightShoulder  5.54896 9.34156 37.1839
RightArm  -7.06806 -28.6944 37.7154
RightForeArm  3.78601 13.939 6.36295
RightHand  -0.627904 -0.759344 -15.6211
LeftUpLeg  4.47045 6.70276 -1.90446
LeftLeg  11.0875 14.0995 -1.65397
LeftFoot  -13.6206 0.0472866 -1.72473
LeftToes  1.06246e-005 4.65856e-005 -8.18501e-006
234
root  -2.34069 40.1448 -4.87845 26.5247 83.6825 29.4563
RightUpLeg  -8.61603 -5.64259 -10.3671
RightLeg  38.6631 -6.16543 -5.54117
RightFoot  -8.00932 -0.156487 3.47245
RightToes  0.00048216 0.542163 -0.142577
Spine  8.0686 -0.179489 -0.076024
Spine1  9.46114 0.238892 -2.13181
HEad  8.54629 2.51724 -3.02444
LeftShoulder1  6.76516 -10.0171 -43.5159
LeftArm  -14.2207 26.5064 -29.9293
LeftForeArm  19.8819 -7.28106 -3.86176
LeftHand  -0.25398 0.0180481 5.50724
RightShoulder  5.55024 9.28564 37.376
RightArm  -10.9705 -25.48 36.9624
RightForeArm  2.0985 12.3126 6.22516
RightHand  -0.798576 0.094493 -16.8861
LeftUpLeg  3.69586 6.39252 -2.79986
LeftLeg  10.9927 15.7452 -1.50657
LeftFoot  -13.3897 0.0551459 -1.40921
LeftToes  1.06246e-005 4.65856e-005 -8.18501e-006
235
root  -2.6826 40.1038 -4.87072 25.0787 81.9733 27.8419
RightUpLeg  -4.45043 -3.94341 -11.2481
RightLeg  35.1485 -4.92007 -3.9759
RightFoot  -8.73754 -0.186838 5.86937
RightToes  0.00048216 0.542163 -0.142577
Spine  6.0196 0.297126 0.352076
Spine1  9.96995 1.08246 -3.41447
HEad  8.92007 2.07867 -2.73266
LeftShoulder1  6.90211 -10.2253 -43.7366
LeftArm  -13.9271 27.6987 -30.8687
LeftForeArm  20.296 -6.12364 -3.8579
LeftHand  -0.25398 0.0180481 5.50724
RightShoulder  5.62653 9.36021 37.706
RightArm  -11.7733 -22.0524 35.8462
RightForeArm  -0.601924 11.8 6.32044
RightHand  -0.964491 0.907583 -17.8222
LeftUpLeg  2.76796 6.26869 -3.61771
LeftLeg  11.4157 17.4931 -1.22497
LeftFoot  -13.3592 0.0599761 -1.14337
LeftToes  1.06246e-005 4.65856e-005 -8.18501e-006
